<?xml version="1.0" encoding="UTF-8" standalone="no"?>
<svg
   xmlns:dc="http://purl.org/dc/elements/1.1/"
   xmlns:cc="http://creativecommons.org/ns#"
   xmlns:rdf="http://www.w3.org/1999/02/22-rdf-syntax-ns#"
   xmlns:svg="http://www.w3.org/2000/svg"
   xmlns="http://www.w3.org/2000/svg"
   xmlns:xlink="http://www.w3.org/1999/xlink"
   id="SVGRoot"
   version="1.1"
   viewBox="0 0 1920 1080"
   height="1080px"
   width="1920px">
  <defs
     id="defs3729">
    <linearGradient
       id="linearGradient4827-4">
      <stop
         id="stop4823"
         offset="0"
         style="stop-color:#381012;stop-opacity:1;" />
      <stop
         id="stop4825"
         offset="1"
         style="stop-color:#ebffff;stop-opacity:0.96078432" />
    </linearGradient>
    <linearGradient
       gradientTransform="matrix(1.0249881,0,0,0.99999864,-150.0682,-357.90534)"
       gradientUnits="userSpaceOnUse"
       y2="463.62158"
       x2="2012.1664"
       y1="1128.5714"
       x1="682.85712"
       id="linearGradient4829"
       xlink:href="#linearGradient4827-4" />
  </defs>
  <metadata
     id="metadata3732">
    <rdf:RDF>
      <cc:Work
         rdf:about="">
        <dc:format>image/svg+xml</dc:format>
        <dc:type
           rdf:resource="http://purl.org/dc/dcmitype/StillImage" />
        <dc:title></dc:title>
      </cc:Work>
    </rdf:RDF>
  </metadata>
  <g
     id="layer1">
    <path
       id="path4640"
       d="M -51.403722,0.00142 H 1922.4303 l 17.5052,1079.99848 -1982.553644,2.8572 z"
       style="opacity:1;fill:url(#linearGradient4829);fill-opacity:1;stroke:#6d5a00;stroke-width:1.01241636px;stroke-linecap:square;stroke-linejoin:round;stroke-opacity:1" />
    <path
       d="M 459.32422,-53.662109 C 226.08158,-54.168532 -16.193359,132.19336 -16.193359,132.19336 c 0,0 -2.997065,534.28451 2.998047,548.57031 5.687415,13.5527 1790.753712,4.06673 1975.982412,3.04688 -0.1413,-7.54615 0.2791,-13.06906 5.3457,-21.05664 0.2129,-1.3556 -1.3748,2.67233 -1.7051,1.89062 -0.4036,-0.95522 -0.2078,-2.06363 -0.3086,-3.0957 -0.8843,-9.05699 -0.9329,-7.38703 3.3809,-15.10547 -0.051,-0.005 -0.1054,-0.0213 -0.1699,-0.0644 -0.2057,-0.13751 -0.8567,-11.09728 -0.9199,-12.26563 0,-5.58431 0.2263,-11.15776 0.1836,-16.74414 -0.062,-5.78982 -0.03,-11.58109 -0.024,-17.37109 6e-4,-6.66751 0,-13.33444 0,-20.00196 9e-4,-6.68024 0,-13.36076 0,-20.04101 V 542.8125 525.71484 508.57227 491.42773 470.71484 450.80273 434.29688 417.15234 400 380 c 0.428,0.92163 0.452,0.32683 0.3477,-0.75586 -1.4031,-1.93904 -2.6629,-3.89314 -3.0606,-4.89844 -0.9549,-2.4136 -0.5727,-5.15856 -0.8594,-7.73828 0.5402,-5.9421 0.2657,-3.22873 0.7969,-8.14258 0.5034,-4.6568 1.7129,-8.44 3.3496,-11.41406 C 1790.8139,363.12508 972.15074,418.12523 748.18164,97.908203 669.49587,-14.591803 565.3436,-53.431917 459.32422,-53.662109 Z M 1971.5117,642.69141 c -0.3993,0.38067 -0.7825,0.77438 -1.1191,1.20898 -0.2971,0.3835 -0.369,1.21144 -0.4864,1.82227 0.4662,-0.84645 1.0433,-1.95642 1.6055,-3.03125 z m 27.2149,8.95117 c -0.056,0.13311 -0.1079,0.26756 -0.1641,0.40039 0.054,-0.0798 0.1062,-0.16051 0.1602,-0.24024 z m -0.2793,15.83594 c -0.5326,1.75709 -1.1599,3.4406 -2.0625,5.97851 -0.1,0.60465 -0.3038,1.19972 -0.2989,1.8125 0,0.1839 0.4877,-0.014 0.5254,0.16602 0.1692,0.80738 0.2741,1.62719 0.3633,2.44726 0.3041,2.79622 0.3238,3.91755 0.3359,5.74219 0.1778,-9.8e-4 0.8516,-0.004 0.8516,-0.004 z"
       style="fill:#381012;fill-opacity:1;stroke:#000000;stroke-width:1.02427697px;stroke-linecap:butt;stroke-linejoin:miter;stroke-opacity:0"
       id="path4616-4" />
    <path
       d="M 465.03711,29.195312 C 231.79446,28.688887 -10.478516,215.05078 -10.478516,215.05078 c 0,0 -2.999016,534.28451 2.9960941,548.57031 5.5303191,13.17835 1693.3223219,4.57309 1957.9160219,3.14453 1.0456,-2.18541 2.0962,-4.36802 3.4707,-6.32617 -0.093,-4.50364 0.3481,-7.16132 2.0117,-11.25195 0.1429,-0.93899 0.2678,-1.84794 0.2285,-2.49023 0.5589,-2.56737 0.7177,-5.25816 1.6211,-7.71875 -0.1272,-1.45948 -0.3212,-2.91856 -0.4668,-4.32813 1.7039,-3.77768 3.0793,-7.72534 4.9785,-11.40234 -0.1797,0.18668 -0.3522,0.37789 -0.5136,0.58007 -1.988,2.49001 -0.9492,4.46943 -1.6524,-2.31445 0.4256,-1.26174 1.3637,-6.32368 3.211,-10.23633 -0.01,-0.29895 0.025,-0.68054 0,-0.89843 -0.1358,-1.01224 -0.2243,-2.02976 -0.336,-3.04493 -0.5905,-6.23651 -0.092,-12.49687 -0.084,-18.74609 -0.2487,-10.25674 -0.8448,-16.25 5.2344,-25.83398 0.2129,-1.3556 -1.3748,2.67233 -1.7051,1.89062 -0.4036,-0.95522 -0.2078,-2.06363 -0.3086,-3.0957 -0.8843,-9.05699 -0.9329,-7.38703 3.3809,-15.10547 -0.051,-0.005 -0.1054,-0.0213 -0.1699,-0.0644 -0.2057,-0.13751 -0.8567,-11.09728 -0.9199,-12.26563 0,-5.58431 0.2264,-11.15776 0.1836,-16.74414 -0.062,-5.78982 -0.03,-11.58109 -0.024,-17.37109 6e-4,-6.66751 0,-13.33444 0,-20.00196 9e-4,-6.68024 0,-13.36076 0,-20.04101 V 542.8125 525.71484 508.57227 491.42773 470.71484 450.80273 434.29688 430.47461 C 1777.4918,447.21449 975.20667,497.17917 753.89648,180.76367 675.2107,68.263664 571.0565,29.425506 465.03711,29.195312 Z M 2009.2168,463.56836 c -0.3129,0.63681 -0.6583,1.27376 -1.0625,1.91406 0.016,0.36225 -0.07,0.84769 -0.029,1.16211 0.4611,3.56104 0.5994,7.0833 0.625,10.66992 -0.2697,5.61776 -0.2233,11.23981 -0.1797,16.86133 0.01,2.02103 -10e-5,4.04173 0,6.0625 z m -2.0859,3.40234 c -0.7712,1.03241 -1.6672,2.07494 -2.7325,3.14063 3.2559,2.00275 2.7607,-0.96677 2.7325,-3.14063 z m 1.2031,46.6543 c -3.1608,10.05645 -1.7947,7.16823 -3.1445,9.0957 0.035,0.26341 0.03,0.65584 0.061,0.86719 0.1519,1.04222 0.246,2.09069 0.3691,3.13672 0.5655,6.31184 0.049,12.64325 0.053,18.9668 0.069,5.73176 0.056,11.46526 0.045,17.19726 -0.01,5.70417 0,11.40716 0,17.11133 0,6.90451 -0,13.81033 -0,20.71484 10e-5,5.44656 0,10.89133 0,16.33789 -0.6512,3.85652 0.8615,10.84033 0,14.375 -0.7667,3.14544 -1.965,6.17093 -2.9473,9.25586 -2.442,1.94936 -1.8116,3.83998 -0.623,2.17383 -1.2005,3.0594 -2.3027,6.15972 -3.584,9.18555 0.1606,-0.23833 0.3239,-0.47497 0.4785,-0.7168 0.1424,-0.20373 0.3227,-0.83747 0.4258,-0.61133 0.2819,0.61832 0.1559,1.35069 0.2187,2.02735 0.077,0.83438 0.5409,6.12607 0.4375,6.80664 -1.0468,6.89313 -1.7791,8.39965 -3.7382,13.9082 -0.1,0.60465 -0.3038,1.19972 -0.2989,1.8125 0,0.1839 0.4877,-0.014 0.5254,0.16602 0.1692,0.80738 0.2741,1.62719 0.3633,2.44726 0.4031,3.70685 0.3132,3.87453 0.3574,7.62305 -0.2645,5.74238 -0.2348,11.48645 -0.1875,17.23242 0.7691,5.4418 -2.5091,10.23118 -4.3633,15.08399 -0.1225,0.32083 0.9113,-0.98386 0.7911,-0.66211 -1.019,2.72861 -2.1121,5.42932 -3.1914,8.13476 0.3795,-0.41372 0.5753,0.0158 0.7343,1.73242 0.3242,3.49967 0.2639,3.15693 0.4356,6.8086 0.029,7.46963 0.4847,4.05995 -5.8223,14.77734 -0.069,0.53341 -0.1452,1.06733 -0.2324,1.60156 1.1302,1.11893 0.3682,3.51572 -0.916,5.98438 -0.062,0.89615 -0.2262,1.67641 -0.8692,1.85156 0.5563,2.8301 0.9036,5.7371 0.295,8.53516 3.2352,-0.0181 19.8691,-0.10742 19.8691,-0.10742 z m -3.8379,10.16211 c -0.3184,0.51558 -0.6764,1.11005 -1.1719,1.98633 -0.2586,0.45751 0.7072,-0.79221 0.9473,-1.25977 0.1132,-0.22051 0.1724,-0.47244 0.2246,-0.72656 z m -32.9844,118.9043 c -0.3993,0.38067 -0.7825,0.77438 -1.1191,1.20898 -0.2971,0.3835 -0.3689,1.21144 -0.4864,1.82227 0.4662,-0.84645 1.0433,-1.95642 1.6055,-3.03125 z"
       style="fill:#541a1d;fill-opacity:1;stroke:#000000;stroke-width:1.02427697px;stroke-linecap:butt;stroke-linejoin:miter;stroke-opacity:0"
       id="path4616" />
    <path
       d="M 467.68555,132.05273 C 234.4429,131.54631 -7.8320312,317.9082 -7.8320312,317.9082 c -2e-7,0 -2.9990268,534.28452 2.9960937,548.57032 5.43754638,12.9573 1640.3886375,4.83767 1947.2500375,3.20117 -0.2223,-4.34976 0.4313,-8.79063 0.6543,-13.44531 -0.1905,-5.44998 -0.2756,-10.89619 -0.2325,-16.34961 0.062,-6.86115 0.025,-13.72266 0.018,-20.58399 v -16.4414 c -10e-5,-0.96728 10e-5,-1.93509 0,-2.90235 -4e-4,-4.29131 1.6445,-11.7981 4.3848,-14.95703 0.5262,-0.60658 1.0367,-1.14379 1.5429,-1.67383 -0.6175,-3.63818 -0.4371,-10.36037 -0.3847,-12.52344 1.9013,-3.40948 3.2746,-7.18354 5.5078,-10.36328 -0.093,-4.50364 0.3481,-7.16132 2.0117,-11.25195 0.1429,-0.93899 0.2678,-1.84794 0.2285,-2.49023 0.5592,-2.56879 0.7184,-5.26097 1.6231,-7.72266 -0.1272,-1.45818 -0.3233,-2.9159 -0.4688,-4.32422 1.7039,-3.77768 3.0793,-7.72534 4.9785,-11.40234 -0.1797,0.18668 -0.3522,0.3779 -0.5136,0.58007 -1.988,2.49001 -0.9492,4.46943 -1.6524,-2.31445 0.4256,-1.26174 1.3637,-6.32368 3.211,-10.23633 -0.01,-0.29895 0.025,-0.68054 0,-0.89843 -0.1358,-1.01224 -0.2243,-2.02976 -0.336,-3.04493 -0.5905,-6.23651 -0.092,-12.49687 -0.084,-18.74609 -0.2487,-10.25674 -0.8448,-16.25 5.2344,-25.83398 0.2129,-1.3556 -1.3748,2.67233 -1.7051,1.89062 -0.4036,-0.95522 -0.2078,-2.06363 -0.3086,-3.0957 -0.8843,-9.05699 -0.9329,-7.38703 3.3809,-15.10547 -0.051,-0.005 -0.1054,-0.0213 -0.1699,-0.0644 -0.2057,-0.13751 -0.8567,-11.09728 -0.9199,-12.26563 0,-5.58431 0.2264,-11.15776 0.1836,-16.74414 -0.062,-5.78982 -0.03,-11.58109 -0.024,-17.37109 6e-4,-6.66751 0,-13.33444 0,-20.00196 9e-4,-6.68024 0,-13.36076 0,-20.04101 V 542.8125 533.56836 C 1772.4524,550.54267 976.75969,598.47334 756.54297,283.62109 677.85722,171.12109 573.70493,132.28293 467.68555,132.05273 Z M 2012.5176,529.33594 c 0,0 -2.769,0.29466 -6.7012,0.70312 0.1946,5.21235 -0.1478,10.43529 -0.1445,15.65235 0.069,5.73176 0.056,11.46526 0.045,17.19726 -0.01,5.70417 0,11.40716 0,17.11133 0,6.90451 -0,13.81033 -0,20.71484 10e-5,5.44656 0,10.89133 0,16.33789 -0.6512,3.85652 0.8615,10.84033 0,14.375 -0.7667,3.14544 -1.965,6.17093 -2.9473,9.25586 -2.442,1.94936 -1.8116,3.83998 -0.623,2.17383 -1.2005,3.0594 -2.3027,6.15972 -3.584,9.18555 0.1606,-0.23833 0.3239,-0.47497 0.4785,-0.7168 0.1424,-0.20373 0.3227,-0.83747 0.4258,-0.61133 0.2819,0.61832 0.1559,1.35069 0.2187,2.02735 0.077,0.83438 0.5409,6.12607 0.4375,6.80664 -1.0468,6.89313 -1.7791,8.39965 -3.7382,13.9082 -0.1,0.60465 -0.3038,1.19972 -0.2989,1.8125 0,0.1839 0.4877,-0.014 0.5254,0.16602 0.1692,0.80738 0.2741,1.62719 0.3633,2.44726 0.4031,3.70685 0.3132,3.87453 0.3574,7.62305 -0.2645,5.74238 -0.2348,11.48645 -0.1875,17.23242 0.7691,5.4418 -2.5091,10.23118 -4.3633,15.08399 -0.1225,0.32083 0.9113,-0.98386 0.7911,-0.66211 -1.019,2.72861 -2.1121,5.42932 -3.1914,8.13476 0.3795,-0.41372 0.5753,0.0158 0.7343,1.73242 0.3242,3.49967 0.2639,3.15693 0.4356,6.8086 0.029,7.46963 0.4847,4.05995 -5.8223,14.77734 -0.069,0.53341 -0.1452,1.06733 -0.2324,1.60156 1.1302,1.11893 0.3682,3.51572 -0.916,5.98438 -0.062,0.89615 -0.2262,1.67641 -0.8692,1.85156 0.5822,2.96229 0.9484,6.01019 0.2149,8.92774 -0.256,1.01794 -0.5814,2.02292 -0.957,3.01171 0.02,3.38976 -0.092,6.78357 -0.1387,10.17188 0,5.6684 0.042,11.33545 0.035,17.00391 0.3043,6.84959 -0.8271,8.5638 -4.5058,15.19336 0.3646,-0.23672 -0.1692,0.83858 0.9297,-1.64844 1.1489,6.04678 0.9041,12.20723 0.707,18.32031 -0.081,5.56423 0.017,11.12866 0.018,16.69336 -0.2145,-0.45896 -0.2562,-0.14684 -0.2246,0.49609 1.3078,2.02148 2.6138,4.34366 3.0488,5.6836 0.4326,1.33257 0.53,2.73565 0.5801,4.14843 3.065,3.47763 4.7226,9.05785 5.9902,11.70313 -0.068,0.38085 -0.116,0.97369 -0.1543,1.67187 7.4264,-0.0395 17.2695,-0.0918 17.2695,-0.0918 z m -41.0059,113.35547 c -0.3993,0.38067 -0.7825,0.77438 -1.1191,1.20898 -0.2971,0.3835 -0.3689,1.21144 -0.4864,1.82227 0.4662,-0.84645 1.0433,-1.95642 1.6055,-3.03125 z m -17.207,135.38476 c -0.2237,0.10711 -0.4577,0.21945 -0.8379,0.4043 -0.2395,0.36977 -0.4793,0.73961 -0.7188,1.10937 0.6497,-0.54424 1.1757,-0.95873 1.5508,-1.2539 0,-0.0866 0,-0.17319 0.01,-0.25977 z m 31.2519,86.66211 c -1.1031,-0.0373 -2.4808,1.88718 -4.0195,4.73047 2.6662,-0.0143 3.4291,-0.0168 6.1289,-0.0312 -0.476,-3.27897 -1.1987,-4.66839 -2.1094,-4.69922 z"
       style="fill:#762529;fill-opacity:1;stroke:#000000;stroke-width:1.02427697px;stroke-linecap:butt;stroke-linejoin:miter;stroke-opacity:0"
       id="path4569-9-0" />
    <path
       d="M 463.11719,222.7168 C 235.80148,222.21038 -0.31640625,408.57227 -0.31640625,408.57227 c 0,0 -2.92090595,534.2846 2.92187505,548.57031 C 8.4481478,971.42828 1962.8516,960 1962.8516,960 l 0.414,-24.04492 c -3.3809,-2.6978 -6.432,-7.10066 -8.4297,-13.45899 -2.1027,-6.69259 -6.9588,-12.66404 -7.9804,-19.74609 -0.172,-1.1924 1.5718,4.55177 1.2578,3.38867 -3.1939,-11.82828 -2.5067,-4.42427 -2.7559,-13.8164 0.1609,-3.84328 0.427,-7.67909 0.4375,-11.52539 -5.0774,-7.97299 -3.1416,-15.8977 -2.7265,-24.5625 -0.1905,-5.44998 -0.2756,-10.89619 -0.2325,-16.34961 0.062,-6.86115 0.025,-13.72266 0.018,-20.58399 v -16.4414 c -10e-5,-0.96728 10e-5,-1.93509 0,-2.90235 -4e-4,-4.29131 1.6445,-11.7981 4.3848,-14.95703 0.5262,-0.60658 1.0366,-1.14379 1.5429,-1.67383 -0.6175,-3.63818 -0.4371,-10.36037 -0.3847,-12.52344 1.9013,-3.40948 3.2746,-7.18354 5.5078,-10.36328 -0.093,-4.50364 0.3481,-7.16132 2.0117,-11.25195 0.1429,-0.93899 0.2678,-1.84794 0.2285,-2.49023 0.5592,-2.56879 0.7184,-5.26097 1.6231,-7.72266 -0.1272,-1.45818 -0.3233,-2.9159 -0.4688,-4.32422 1.7039,-3.77768 3.0793,-7.72534 4.9785,-11.40234 -0.1797,0.18668 -0.3522,0.3779 -0.5136,0.58007 -1.988,2.49001 -0.9492,4.46943 -1.6524,-2.31445 0.4256,-1.26174 1.3637,-6.32368 3.211,-10.23633 -0.01,-0.29895 0.025,-0.68054 0,-0.89843 -0.1358,-1.01224 -0.2243,-2.02976 -0.336,-3.04493 -0.5905,-6.23651 -0.092,-12.49687 -0.084,-18.74609 -0.2461,-10.14979 -0.8221,-16.13022 5.0567,-25.54101 l 0.01,-0.39063 c -0.3908,0.58715 -1.2937,2.5597 -1.5352,1.98828 -0.4036,-0.95522 -0.2078,-2.06363 -0.3086,-3.0957 -0.7682,-7.8678 -0.7231,-7.95966 2.082,-12.82422 l 0.2422,-14.07617 c 0,-0.0795 -0.031,-0.48721 -0.033,-0.53516 0,-4.7033 0.1526,-9.39946 0.1778,-14.10156 C 1967.3992,620.1503 989.88171,734.06642 744.63477,374.28516 667.9485,261.78517 566.44251,222.94699 463.11719,222.7168 Z M 1954.3047,778.07617 c -0.2237,0.10711 -0.4577,0.21945 -0.8379,0.4043 -0.2395,0.36977 -0.4793,0.73961 -0.7188,1.10937 0.6497,-0.54424 1.1757,-0.95873 1.5508,-1.2539 0,-0.0866 0,-0.17319 0.01,-0.25977 z"
       style="fill:#902f34;fill-opacity:1;stroke:#000000;stroke-width:1.01117933px;stroke-linecap:butt;stroke-linejoin:miter;stroke-opacity:0"
       id="path4569-9" />
    <path
       d="M 457.95508,342.7168 C 233.33037,342.21039 0.0078125,528.57227 0.0078125,528.57227 c 0,0 -2.8868743,534.28453 2.8867187,548.57033 C 8.6681303,1091.4283 1939.9355,1080 1939.9355,1080 l 3.4707,-204.40039 c -1.9044,-6.2536 -0.6628,-12.58282 -0.3378,-19.36523 -0.1905,-5.44998 -0.2756,-10.89619 -0.2325,-16.34961 0.062,-6.86115 0.025,-13.72266 0.018,-20.58399 v -16.4414 c -10e-5,-0.96728 10e-5,-1.93509 0,-2.90235 -2e-4,-2.84173 0.7326,-7.07551 2.0156,-10.54101 L 1945.709,740 c 0,0 -967.07738,114.28511 -1209.56838,-245.71484 -75.77843,-112.5 -176.0834,-151.33818 -278.18554,-151.56836 z"
       style="fill:#a5343a;fill-opacity:1;stroke:#000000;stroke-width:1.00517619px;stroke-linecap:butt;stroke-linejoin:miter;stroke-opacity:0"
       id="path4569" />
  </g>
</svg>
